<?xml version="1.0" encoding="UTF-8" standalone="no"?>
<!-- Generator: Adobe Illustrator 13.0.0, SVG Export Plug-In . SVG Version: 6.00 Build 14948)  -->

<svg
   xmlns:dc="http://purl.org/dc/elements/1.1/"
   xmlns:cc="http://creativecommons.org/ns#"
   xmlns:rdf="http://www.w3.org/1999/02/22-rdf-syntax-ns#"
   xmlns:svg="http://www.w3.org/2000/svg"
   xmlns="http://www.w3.org/2000/svg"
   xmlns:sodipodi="http://sodipodi.sourceforge.net/DTD/sodipodi-0.dtd"
   xmlns:inkscape="http://www.inkscape.org/namespaces/inkscape"
   version="1.1"
   id="capa1"
   x="0px"
   y="0px"
   width="120px"
   height="120px"
   viewBox="0 0 120 120"
   enable-background="new 0 0 120 120"
   xml:space="preserve"
   inkscape:version="0.48.0 r9654"
   sodipodi:docname="sbmfic_extranet.svg"
   inkscape:export-filename="/home/francisco/Escritorio/sbmfic_extranet.png"
   inkscape:export-xdpi="36"
   inkscape:export-ydpi="36"><metadata
   id="metadata19"><rdf:RDF><cc:Work
       rdf:about=""><dc:format>image/svg+xml</dc:format><dc:type
         rdf:resource="http://purl.org/dc/dcmitype/StillImage" /><dc:title></dc:title></cc:Work></rdf:RDF></metadata><defs
   id="defs17" /><sodipodi:namedview
   pagecolor="#ffffff"
   bordercolor="#666666"
   borderopacity="1"
   objecttolerance="10"
   gridtolerance="10"
   guidetolerance="10"
   inkscape:pageopacity="0"
   inkscape:pageshadow="2"
   inkscape:window-width="1920"
   inkscape:window-height="1122"
   id="namedview15"
   showgrid="true"
   inkscape:zoom="3.028774"
   inkscape:cx="16.634014"
   inkscape:cy="40.362358"
   inkscape:window-x="0"
   inkscape:window-y="24"
   inkscape:window-maximized="1"
   inkscape:current-layer="capa1"><inkscape:grid
     type="xygrid"
     id="grid2996"
     empspacing="4"
     visible="true"
     enabled="true"
     snapvisiblegridlinesonly="true" /></sodipodi:namedview>
<g
   id="sbmfic_x5F_logo">
	<rect
   id="logo_x5F_fondo"
   fill="#41A578"
   width="120"
   height="120" />
	
	<rect
   id="c4"
   x="44"
   y="84"
   fill="#FFFFFF"
   width="32"
   height="32" />
	
	
	
	<rect
   id="c3"
   x="84"
   y="44"
   fill="#FFFFFF"
   width="32"
   height="32" />
	<polygon
   id="m"
   fill="#FFFFFF"
   points="76,44 76,76 68,76 68,60 64,76 56,76 52,60 52,76 44,76 44,44 56,44 60,60 64,44  " />
	<rect
   id="c2"
   x="4"
   y="44"
   fill="#FFFFFF"
   width="32"
   height="32" />
	
	<rect
   id="c1"
   x="44"
   y="4"
   fill="#FFFFFF"
   width="32"
   height="32" />
</g>
<path
   style="fill:#ffffff;stroke:none;stroke-width:1px;stroke-linecap:butt;stroke-linejoin:miter;stroke-opacity:1"
   d="M 36,4 C 36,4 16,4 12,4 8,4 4,8 4,12 c 0,4 0,0 0,4 0,4 4,8 8,8 4,0 8,0 12,0 4,0 4,4 0,4 -4,0 -20,0 -20,0 l 0,8 c 0,0 20,0 24,0 4,0 8,-4 8,-8 0,-4 0,0 0,-4 0,-4 -4,-8 -8,-8 -4,0 -8,0 -12,0 -4,0 -4,-4 0,-4 4,0 20,0 20,0 z"
   id="path3776"
   inkscape:connector-curvature="0"
   sodipodi:nodetypes="cssssssccsssssscc" /><path
   style="fill:#ffffff;stroke:none;stroke-width:1px;stroke-linecap:butt;stroke-linejoin:miter;stroke-opacity:1"
   d="M 84 4 L 84 36 L 108 36 C 112 36 116 32 116 28 C 116 24 116 22 112 20 C 116 18 116 16 116 12 C 116 8 112 4 108 4 L 84 4 z M 92 12 L 104 12 C 108 12 108 16 104 16 L 92 16 L 92 12 z M 92 24 L 104 24 C 108 24 108 28 104 28 L 92 28 L 92 24 z "
   id="path3778" /><path
   style="fill:#ffffff;stroke:none;stroke-width:1px;stroke-linecap:butt;stroke-linejoin:miter;stroke-opacity:1"
   d="m 4,84 32,0 0,8 -24,0 0,4 24,0 0,8 -24,0 0,12 -8,0 z"
   id="path3796"
   inkscape:connector-curvature="0" /><path
   style="fill:#ffffff;stroke:none;stroke-width:1px;stroke-linecap:butt;stroke-linejoin:miter;stroke-opacity:1"
   d="m 116,92 0,-8 c 0,0 -20,0 -24,0 -4,0 -8,4 -8,8 0,4 0,12 0,16 0,4 4,8 8,8 4,0 24,0 24,0 l 0,-8 c 0,0 -16,0 -20,0 -4,0 -4,-4 -4,-4 0,0 0,-4 0,-8 0,-4 4,-4 4,-4 z"
   id="path3798"
   inkscape:connector-curvature="0" /></svg>